<?xml version="1.0" standalone="no"?>
<!DOCTYPE svg PUBLIC "-//W3C//DTD SVG 20010904//EN"
 "http://www.w3.org/TR/2001/REC-SVG-20010904/DTD/svg10.dtd">
<svg version="1.0" xmlns="http://www.w3.org/2000/svg"
 width="978.000000pt" height="978.000000pt" viewBox="0 0 978.000000 978.000000"
 preserveAspectRatio="xMidYMid meet">
<metadata>
Created by potrace 1.11, written by Peter Selinger 2001-2013
</metadata>
<g transform="translate(0.000000,978.000000) scale(0.100000,-0.100000)"
fill="#000000" stroke="none">
<path d="M7565 9749 c-27 -5 -56 -7 -62 -4 -7 2 -13 1 -13 -3 0 -4 -37 -16
-82 -26 -91 -22 -95 -22 -105 -26 -5 -1 -11 -2 -15 -1 -5 0 -8 -4 -8 -11 0 -6
-3 -9 -6 -6 -5 6 -136 -36 -159 -50 -5 -4 -15 -7 -22 -8 -16 -3 -206 -97 -265
-131 -25 -16 -58 -38 -72 -50 -15 -13 -28 -23 -31 -23 -8 0 -54 -39 -139 -117
-26 -24 -44 -43 -41 -43 3 0 -4 -10 -17 -23 -13 -13 -34 -40 -48 -60 -14 -20
-28 -37 -32 -37 -5 0 -8 -9 -8 -20 0 -11 -3 -20 -8 -20 -4 0 -16 -17 -27 -37
-11 -21 -26 -49 -35 -63 -22 -35 -40 -89 -46 -137 -8 -63 12 -120 56 -162 39
-37 155 -101 184 -101 8 0 17 -4 20 -9 3 -5 23 -12 43 -16 21 -4 42 -10 48
-13 5 -4 16 -8 23 -9 31 -7 39 -10 71 -27 39 -21 81 -60 81 -76 0 -5 3 -10 8
-10 12 0 41 -71 55 -135 16 -69 13 -123 -9 -210 -9 -33 -17 -64 -19 -70 -11
-46 -75 -173 -112 -222 -31 -42 -85 -97 -138 -141 -24 -21 -74 -34 -140 -37
-100 -6 -203 56 -303 181 -31 40 -131 241 -171 344 -87 226 -106 265 -147 305
-36 36 -114 74 -114 57 0 -4 -12 -8 -26 -9 -78 -4 -282 -162 -418 -323 -16
-19 -43 -51 -60 -70 -40 -46 -85 -101 -232 -280 -141 -173 -153 -187 -179
-214 -11 -12 -48 -57 -82 -101 -35 -44 -67 -85 -71 -90 -5 -6 -17 -23 -26 -38
-18 -26 -18 -27 9 -37 14 -5 31 -10 36 -10 5 0 17 -4 27 -9 47 -24 142 -57
155 -53 4 1 7 -3 7 -8 0 -6 7 -10 16 -10 24 0 285 -129 304 -150 3 -3 21 -17
40 -30 38 -26 190 -173 190 -184 0 -4 14 -27 31 -52 55 -80 84 -198 81 -333
-1 -31 -2 -77 -2 -102 l0 -45 -48 -12 c-26 -7 -50 -13 -54 -13 -4 0 -28 -8
-53 -19 -25 -11 -49 -20 -53 -21 -4 -1 -15 -4 -24 -7 -10 -2 -18 -8 -18 -13 0
-5 -3 -8 -7 -7 -13 3 -83 -25 -83 -34 0 -4 -5 -8 -11 -8 -26 0 -169 -119 -169
-141 0 -5 -4 -9 -9 -9 -14 0 -60 -101 -64 -141 -2 -20 -7 -41 -11 -47 -4 -7
-2 -12 4 -12 7 0 8 -7 3 -17 -10 -22 -10 -44 0 -60 4 -6 3 -14 -3 -18 -6 -4
-7 -12 -3 -18 4 -7 8 -23 9 -37 3 -48 36 -141 72 -203 43 -73 86 -127 101
-127 6 0 11 -4 11 -10 0 -5 7 -10 15 -10 8 0 15 -4 15 -10 0 -5 9 -10 19 -10
11 0 21 -4 23 -10 7 -22 128 -31 228 -16 156 23 355 144 396 241 8 19 19 35
26 35 6 0 8 3 5 6 -7 7 35 86 62 118 33 39 130 54 206 31 22 -6 43 -12 48 -13
11 -2 68 -33 81 -43 6 -5 47 -36 91 -71 105 -82 124 -98 219 -197 111 -115
126 -131 126 -136 0 -4 16 -25 45 -59 17 -20 55 -75 55 -80 0 -3 13 -24 29
-48 15 -24 42 -68 58 -99 34 -63 105 -267 98 -279 -3 -5 -1 -11 4 -14 5 -4 12
-24 16 -46 5 -29 12 -40 24 -40 10 0 56 39 103 88 97 99 276 270 338 322 23
19 59 51 80 70 21 19 53 46 70 60 18 14 37 30 44 35 86 78 254 183 357 224
102 40 185 28 211 -31 7 -15 15 -28 18 -28 3 0 6 -10 7 -22 1 -11 8 -25 15
-29 7 -5 10 -9 7 -9 -4 0 -2 -19 2 -42 5 -24 11 -56 14 -72 10 -65 68 -201 99
-231 7 -7 24 -27 38 -43 49 -58 151 -115 248 -139 46 -11 198 -9 258 4 37 8
76 16 87 19 33 7 120 38 125 46 3 3 12 8 20 10 21 4 110 97 110 114 0 8 4 14
8 14 15 0 35 74 38 137 1 34 5 67 9 73 3 5 1 10 -5 10 -6 0 -10 6 -9 13 5 26
-33 92 -78 133 -26 24 -50 44 -54 44 -4 0 -14 6 -21 13 -45 43 -278 138 -379
153 -59 9 -129 46 -155 80 -76 104 -77 204 -6 319 25 40 135 155 148 155 4 0
14 8 23 18 25 26 176 124 251 161 25 12 52 26 60 31 20 12 129 61 210 95 36
15 79 33 95 40 17 7 66 25 110 40 89 31 176 72 188 89 10 14 1 65 -20 113 -9
21 -17 40 -18 43 0 3 -9 20 -18 38 -10 17 -14 32 -10 32 5 0 0 7 -10 14 -10 8
-18 17 -18 20 1 3 1 7 0 9 0 1 -2 9 -4 17 -14 71 -327 684 -372 728 -7 7 -13
16 -13 20 0 4 -13 21 -28 38 -15 17 -41 46 -57 65 -61 69 -194 151 -260 162
-11 1 -24 5 -30 8 -27 15 -130 -2 -175 -29 -35 -22 -113 -104 -130 -139 -8
-15 -23 -40 -33 -55 -10 -16 -15 -28 -10 -28 4 0 3 -4 -2 -8 -6 -4 -30 -47
-54 -95 -55 -111 -119 -197 -175 -235 -50 -32 -82 -34 -141 -7 -22 10 -44 19
-48 19 -4 1 -11 7 -16 14 -5 8 -11 12 -14 10 -16 -9 -179 141 -262 243 -31 38
-75 107 -75 119 0 5 -4 10 -10 10 -5 0 -10 8 -10 18 0 10 -4 22 -8 28 -34 40
-44 181 -18 253 52 141 184 259 359 322 53 19 85 22 227 24 91 1 175 5 188 9
12 4 28 19 36 34 24 47 9 179 -27 247 -6 11 -12 22 -12 25 -4 19 -171 258
-195 280 -8 7 -153 198 -165 217 -5 9 -17 24 -25 33 -30 34 -218 294 -306 425
-26 39 -50 72 -53 75 -3 3 -11 14 -17 25 -13 23 -53 28 -129 14z"/>
<path d="M3170 7515 c-19 -7 -38 -13 -42 -14 -5 0 -9 -1 -10 -2 -2 0 -10 -2
-18 -4 -35 -8 -145 -51 -148 -57 -2 -5 -10 -8 -18 -8 -15 0 -173 -81 -216
-111 -14 -11 -31 -19 -37 -19 -6 0 -11 -4 -11 -10 0 -5 -4 -10 -9 -10 -18 0
-213 -148 -342 -260 -113 -99 -323 -315 -402 -417 -12 -15 -29 -35 -37 -44 -8
-9 -22 -26 -30 -39 -8 -12 -19 -28 -25 -34 -27 -31 -73 -95 -90 -123 -11 -18
-23 -33 -27 -33 -4 0 -8 -4 -8 -9 0 -8 -53 -94 -78 -126 -28 -37 -168 -286
-177 -317 -4 -13 -11 -25 -14 -28 -4 -3 -15 -24 -25 -47 -23 -52 -35 -48 -31
10 7 79 32 155 118 357 6 14 11 27 12 30 0 3 29 62 64 132 34 70 62 130 61
134 -1 4 3 10 8 13 8 5 43 74 98 196 44 98 57 145 60 220 1 44 -2 94 -7 112
-11 34 -74 97 -89 88 -4 -3 -10 -1 -12 5 -1 5 -32 11 -67 14 -124 9 -221 -41
-368 -190 -40 -41 -73 -76 -73 -79 0 -4 -21 -31 -45 -59 -53 -59 -308 -506
-288 -506 3 0 -1 -10 -9 -22 -8 -13 -28 -57 -43 -98 -16 -41 -32 -79 -36 -85
-3 -5 -14 -35 -23 -65 -10 -30 -23 -71 -31 -90 -15 -38 -44 -133 -52 -165 -7
-32 -11 -50 -13 -55 -1 -3 -2 -8 -1 -12 0 -5 -4 -8 -10 -8 -5 0 -8 -4 -5 -9 3
-4 -1 -33 -9 -62 -9 -30 -17 -63 -20 -74 -12 -48 -23 -79 -25 -65 -1 8 -4 31
-6 50 -2 19 -5 118 -7 220 -3 165 -5 189 -24 225 -34 65 -65 87 -125 91 -121
7 -219 -61 -262 -182 -14 -39 -26 -76 -26 -82 0 -6 -5 -23 -11 -39 -7 -15 -13
-38 -15 -49 -1 -12 -11 -68 -21 -125 -25 -145 -25 -693 1 -854 2 -17 8 -55 11
-85 4 -30 8 -62 10 -70 1 -8 10 -62 20 -120 9 -58 19 -112 22 -120 3 -8 7 -24
9 -35 13 -93 66 -256 100 -310 7 -11 13 -24 13 -28 -1 -12 75 -161 86 -169 6
-4 7 -8 3 -8 -4 0 10 -29 32 -65 22 -36 40 -69 40 -74 0 -5 4 -11 8 -13 5 -1
25 -31 47 -65 21 -35 42 -63 46 -63 5 0 9 -6 9 -12 0 -7 10 -25 23 -41 12 -15
32 -39 44 -55 79 -99 115 -141 189 -216 80 -81 235 -216 248 -216 4 0 19 -11
33 -24 14 -13 37 -30 52 -38 14 -7 35 -21 45 -30 11 -10 29 -21 39 -24 11 -4
25 -10 31 -15 6 -5 61 -42 122 -82 61 -41 132 -89 157 -108 25 -19 56 -42 68
-51 13 -9 55 -40 92 -67 37 -28 72 -51 77 -51 4 0 10 -4 12 -8 2 -4 62 -48
133 -96 72 -49 151 -105 176 -125 26 -20 57 -43 69 -51 13 -8 32 -24 44 -35
12 -11 52 -47 91 -80 38 -33 79 -69 91 -80 12 -11 48 -42 80 -70 125 -107 318
-309 449 -471 17 -20 35 -42 40 -48 6 -6 32 -40 58 -76 26 -36 52 -71 58 -78
26 -31 150 -235 191 -312 56 -107 130 -289 122 -301 -3 -5 0 -9 7 -9 7 0 9 -3
6 -7 -4 -3 -3 -11 2 -17 6 -6 12 -25 15 -41 2 -17 5 -30 6 -30 4 0 10 -45 15
-95 2 -25 5 -47 5 -50 2 -7 2 -325 0 -325 -1 0 -2 -15 -3 -33 l-2 -32 872 0
873 0 -6 37 c-3 20 -10 47 -15 61 -5 14 -8 27 -5 29 2 3 -1 21 -8 41 -7 21
-16 59 -20 85 -4 27 -9 59 -12 70 -2 12 -6 36 -9 53 -2 18 -11 69 -21 115 -13
67 -17 153 -19 417 -3 360 0 386 49 478 51 92 210 256 364 373 26 20 51 42 55
49 4 6 12 12 17 12 8 0 35 21 79 60 9 8 48 41 86 72 65 52 219 210 252 258 8
12 25 32 38 46 13 14 43 51 67 82 24 32 45 59 48 62 17 16 60 80 60 88 0 6 7
13 16 16 8 3 13 10 10 15 -4 5 -3 11 2 13 13 5 85 126 143 238 53 101 124 272
149 355 6 22 14 47 17 55 3 8 8 24 10 35 8 38 11 50 13 50 2 0 3 7 13 55 38
179 40 202 41 430 1 197 -5 308 -17 340 -5 14 -23 95 -33 150 -3 14 -9 36 -13
50 -8 21 -14 44 -27 95 -12 53 -117 275 -180 382 -119 203 -165 266 -272 376
-124 128 -258 188 -420 188 -79 0 -156 -14 -177 -31 -5 -5 -12 -8 -15 -7 -6 1
-61 -34 -78 -50 -7 -7 -19 -16 -26 -20 -18 -11 -126 -145 -126 -157 0 -5 -7
-17 -16 -27 -8 -9 -17 -23 -18 -31 -1 -7 -10 -31 -20 -53 -27 -60 -46 -116
-54 -155 -8 -42 -7 -286 1 -315 4 -11 11 -38 16 -60 6 -22 17 -57 26 -78 8
-20 14 -38 13 -39 -1 -2 16 -38 37 -82 35 -69 46 -83 99 -117 33 -21 64 -39
69 -39 4 0 28 -14 53 -30 64 -45 77 -77 79 -190 1 -52 0 -99 -3 -104 -3 -5 -6
-25 -7 -45 -6 -76 -55 -230 -77 -239 -4 -2 -8 -10 -8 -18 0 -8 -4 -14 -8 -14
-4 0 -15 -13 -25 -29 -60 -102 -288 -299 -427 -368 -19 -10 -38 -22 -41 -26
-3 -5 -8 -8 -10 -7 -4 1 -16 -3 -108 -39 -119 -48 -323 -69 -461 -49 -67 10
-204 51 -274 82 -28 13 -56 25 -62 27 -25 9 -194 113 -245 152 -100 75 -229
193 -229 209 0 5 -6 8 -14 8 -8 0 -16 4 -18 10 -1 5 -35 42 -74 82 -122 126
-249 293 -351 463 -16 27 -100 189 -101 195 -1 6 -20 59 -29 80 -3 8 -7 17 -7
20 -1 3 -5 11 -9 18 -5 6 -6 12 -3 12 3 0 -2 16 -10 35 -8 19 -14 36 -13 37 1
2 -4 23 -11 48 -7 25 -14 59 -16 75 -2 17 -6 41 -9 55 -11 47 -14 185 -5 235
17 96 21 110 42 175 80 247 254 444 508 577 102 53 197 93 204 86 3 -4 6 -1 6
5 0 7 3 11 8 10 4 -1 39 7 77 19 74 23 173 49 215 57 14 2 44 9 68 14 23 5 42
8 42 6 0 -3 8 0 18 5 10 5 36 12 57 15 22 4 76 15 120 27 44 11 87 21 95 23
95 24 117 30 128 39 6 5 12 7 12 4 0 -3 33 6 73 19 39 14 77 27 82 28 34 9
197 82 263 118 56 30 131 83 184 130 31 28 81 121 80 152 0 65 -26 173 -45
192 -4 4 -7 16 -7 26 0 10 -4 18 -10 18 -5 0 -10 6 -10 14 0 8 -6 21 -13 28
-7 7 -23 29 -34 49 -12 19 -41 53 -64 74 -52 47 -180 122 -234 136 -22 5 -49
14 -60 19 -32 15 -175 35 -240 34 -64 -1 -196 -13 -205 -19 -4 -2 -24 -6 -47
-9 -22 -2 -60 -10 -84 -16 -42 -12 -53 -14 -99 -24 -11 -3 -25 -8 -31 -12 -7
-4 -19 -8 -28 -9 -9 -1 -29 -7 -46 -14 -16 -7 -37 -14 -45 -16 -23 -5 -184
-76 -194 -86 -6 -5 -18 -9 -28 -9 -10 0 -18 -4 -18 -9 0 -5 -11 -12 -25 -15
-14 -4 -25 -11 -25 -17 0 -6 -4 -7 -10 -4 -5 3 -10 2 -10 -2 0 -5 -22 -19 -50
-32 -27 -13 -50 -28 -50 -33 0 -5 -4 -7 -9 -4 -5 3 -15 -1 -22 -10 -7 -8 -30
-24 -51 -35 -21 -11 -38 -25 -38 -31 0 -6 -3 -9 -6 -6 -15 15 -195 -134 -375
-312 -234 -229 -232 -228 -225 -200 15 56 22 73 52 135 13 28 24 56 24 63 0 6
4 12 9 12 5 0 13 10 17 23 4 12 9 24 13 27 3 3 24 32 46 65 22 33 48 66 57 73
10 7 18 17 18 22 0 5 21 33 48 61 49 54 303 309 307 309 5 0 133 119 221 206
94 93 164 188 171 234 5 28 5 147 0 170 -17 81 -94 155 -191 184 -58 18 -236
18 -286 1z"/>
</g>
</svg>
